<?xml version="1.0" standalone="no"?>
<!DOCTYPE svg PUBLIC "-//W3C//DTD SVG 20010904//EN"
 "http://www.w3.org/TR/2001/REC-SVG-20010904/DTD/svg10.dtd">
<svg version="1.0" xmlns="http://www.w3.org/2000/svg"
 width="600.000000pt" height="600.000000pt" viewBox="0 0 600.000000 600.000000"
 preserveAspectRatio="xMidYMid meet">

<g transform="translate(0.000000,600.000000) scale(0.100000,-0.100000)"
fill="#000000" stroke="none">
<path d="M0 3000 l0 -3000 3000 0 3000 0 0 3000 0 3000 -3000 0 -3000 0 0
-3000z m1964 444 c9 -3 16 -15 16 -25 0 -17 -8 -19 -96 -19 -53 0 -105 -5
-117 -12 -72 -37 -91 -131 -39 -188 32 -37 80 -50 174 -49 73 1 90 -4 81 -26
-7 -20 -179 -21 -227 -1 -141 59 -135 260 9 311 41 14 170 20 199 9z m390 -32
c88 -60 90 -200 4 -266 -72 -54 -176 -42 -232 27 -28 35 -31 46 -31 109 l0 70
48 43 c67 62 136 67 211 17z m495 29 c8 -5 11 -16 8 -25 -6 -14 -29 -16 -167
-16 -151 0 -160 1 -160 19 0 11 6 22 13 24 22 9 291 7 306 -2z m441 -19 c0
-10 -20 -58 -45 -107 -24 -50 -45 -95 -45 -102 0 -6 -3 -13 -7 -15 -5 -1 -17
-21 -28 -43 -11 -22 -27 -40 -35 -40 -14 0 -169 284 -170 313 0 6 9 12 20 12
16 0 34 -27 82 -124 34 -69 65 -123 69 -120 4 2 33 57 64 122 31 64 62 120 68
124 15 9 27 0 27 -20z m950 -132 c44 -89 78 -165 75 -170 -17 -28 -40 -1 -97
115 -35 69 -66 125 -70 125 -4 0 -35 -56 -69 -125 -57 -115 -78 -141 -94 -115
-7 12 16 80 27 80 4 0 8 5 8 10 0 19 101 215 117 228 9 6 18 12 20 12 2 0 39
-72 83 -160z m-800 -16 c0 -152 -1 -165 -17 -162 -16 3 -18 20 -21 166 -2 157
-2 162 18 162 19 0 20 -6 20 -166z m263 46 c63 -66 118 -120 121 -120 3 0 6
54 6 120 l0 120 25 0 25 0 0 -160 c0 -138 -2 -161 -16 -167 -11 -4 -54 32
-145 123 l-128 128 -3 -124 c-3 -117 -4 -125 -23 -125 -19 0 -20 8 -23 150 -1
82 0 155 2 162 12 31 49 7 159 -107z m-919 -100 c43 -44 76 -85 74 -92 -10
-28 -33 -16 -106 56 l-76 76 -73 0 c-66 0 -73 2 -73 20 0 18 7 20 88 20 l89 0
77 -80z m-219 -90 c0 -22 -29 -18 -33 3 -3 14 1 18 15 15 10 -2 18 -10 18 -18z
m-530 -215 c0 -19 -8 -20 -120 -25 -139 -6 -161 -15 -194 -83 -26 -54 -26 -70
-1 -122 31 -64 66 -79 200 -85 107 -5 115 -6 115 -25 0 -19 -7 -20 -127 -20
-124 0 -127 0 -169 30 -80 57 -111 163 -70 243 22 43 76 93 113 104 13 3 75 6
138 5 108 -2 115 -3 115 -22z m273 -147 l2 -167 153 -3 c144 -3 152 -4 152
-23 0 -19 -7 -20 -175 -20 l-175 0 -3 193 -2 193 22 -3 c23 -3 23 -5 26 -170z
m750 135 c57 -46 75 -77 80 -138 5 -65 -9 -107 -51 -152 -85 -91 -231 -77
-301 27 -24 36 -30 54 -30 104 -1 52 4 68 29 106 43 64 102 93 179 87 45 -4
66 -12 94 -34z m336 21 c3 -9 6 -61 6 -117 0 -112 13 -149 66 -183 39 -26 113
-23 152 5 49 35 57 56 62 186 5 116 6 120 28 123 l24 4 -4 -134 c-3 -123 -5
-138 -27 -170 -69 -100 -202 -116 -290 -34 -52 48 -61 80 -61 216 0 111 1 120
19 120 10 0 22 -7 25 -16z m806 4 c146 -51 169 -259 38 -345 -40 -27 -47 -28
-167 -28 -123 0 -126 1 -129 23 -3 22 -2 22 104 22 123 0 177 18 207 69 22 37
22 114 1 151 -31 51 -68 65 -194 70 -110 5 -115 6 -118 28 -3 22 -2 22 111 22
63 0 129 -5 147 -12z"/>
<path d="M2210 3393 c-56 -22 -88 -92 -69 -150 16 -50 42 -74 89 -80 52 -7 84
2 114 32 70 70 24 193 -76 201 -24 2 -50 1 -58 -3z"/>
<path d="M2883 2874 c-79 -39 -103 -160 -44 -219 42 -42 55 -48 105 -48 62 -1
99 21 127 74 26 53 25 105 -5 144 -46 60 -120 80 -183 49z"/>
</g>
</svg>
